<?xml version="1.0" encoding="utf-8"?>
<!-- Generator: Adobe Illustrator 27.0.0, SVG Export Plug-In . SVG Version: 6.00 Build 0)  -->
<svg version="1.1" id="Layer_1" xmlns="http://www.w3.org/2000/svg" xmlns:xlink="http://www.w3.org/1999/xlink" x="0px" y="0px"
	 viewBox="0 0 1200 1200" style="enable-background:new 0 0 1200 1200;" xml:space="preserve">
<style type="text/css">
	.st0{fill-rule:evenodd;clip-rule:evenodd;fill:#FFFFFF;}
</style>
<g>
	<path class="st0" d="M600,267.5c-183.4,0-332.5,149-332.5,332.5c0,183.4,149.1,332.5,332.5,332.5c183.5,0,332.5-149.1,332.5-332.5
		C932.5,416.5,783.5,267.5,600,267.5L600,267.5z M600,297.7c167.2,0,302.3,135.1,302.3,302.3c0,167.1-135.1,302.3-302.3,302.3
		c-167.1,0-302.3-135.2-302.3-302.3C297.7,432.9,432.9,297.7,600,297.7z"/>
	<path class="st0" d="M484.9,471.5c-3.9,0.4-7.4,2.2-10,5.2c-2.5,2.9-3.8,6.7-3.7,10.6s1.9,7.5,4.7,10.2l102.5,102.7L475.9,702.7v0
		c-3.8,3.8-5.3,9.4-3.9,14.7c1.4,5.2,5.5,9.3,10.7,10.7c5.2,1.4,10.8-0.1,14.7-3.9l102.7-102.7l102.5,102.7
		c3.8,3.8,9.4,5.3,14.7,3.9c5.2-1.4,9.3-5.5,10.7-10.7c1.4-5.2-0.1-10.8-3.9-14.7L621.4,600.2l102.7-102.7v0c3-2.9,4.6-6.8,4.6-10.9
		c0-4.1-1.7-8-4.6-10.9c-3-2.8-7-4.4-11.1-4.2c-3.9,0.1-7.6,1.7-10.4,4.5L600.1,578.4L497.4,475.9c-2.9-2.9-6.8-4.5-10.9-4.5
		C486,471.4,485.4,471.4,484.9,471.5L484.9,471.5z"/>
</g>
</svg>
