<?xml version="1.0" encoding="UTF-8"?>
<svg width="1200pt" height="1200pt" version="1.1" viewBox="0 0 1200 1200" xmlns="http://www.w3.org/2000/svg">
 <g fill-rule="evenodd">
  <path d="m600 267.49c-183.42 0-332.52 149.02-332.52 332.52 0 183.42 149.09 332.52 332.52 332.52 183.5 0 332.52-149.09 332.52-332.52 0-183.49-149.02-332.52-332.52-332.52zm0 30.23c167.16 0 302.29 135.12 302.29 302.29 0 167.08-135.13 302.29-302.29 302.29-167.08 0-302.29-135.21-302.29-302.29 0-167.16 135.2-302.29 302.29-302.29z"/>
  <path d="m484.87 471.46c-3.8594 0.375-7.4297 2.2227-9.9688 5.1562-2.5391 2.9375-3.8477 6.7344-3.6641 10.609s1.8555 7.5312 4.6602 10.211l102.49 102.73-102.49 102.49v0.003906c-3.8398 3.8359-5.3359 9.4336-3.9336 14.676 1.4062 5.2422 5.5039 9.3398 10.746 10.746 5.2422 1.4023 10.84-0.09375 14.68-3.9336l102.73-102.73 102.49 102.73c3.8398 3.8398 9.4336 5.3359 14.676 3.9336 5.2461-1.4062 9.3398-5.5039 10.746-10.746 1.4062-5.2422-0.09375-10.84-3.9336-14.676l-102.73-102.49 102.73-102.73v-0.003906c2.957-2.8516 4.625-6.7891 4.6172-10.895-0.007813-4.1094-1.6836-8.0391-4.6484-10.883-2.9648-2.8477-6.9609-4.3633-11.066-4.1992-3.9141 0.09375-7.6406 1.7031-10.391 4.4883l-102.49 102.49-102.73-102.49c-2.8672-2.9023-6.7852-4.5195-10.863-4.4883-0.55078-0.03125-1.1055-0.03125-1.6562 0z"/>
 </g>
</svg>
