<?xml version="1.0" encoding="utf-8"?>
<!-- Generator: Adobe Illustrator 27.0.0, SVG Export Plug-In . SVG Version: 6.00 Build 0)  -->
<svg version="1.1" id="Layer_1" xmlns="http://www.w3.org/2000/svg" xmlns:xlink="http://www.w3.org/1999/xlink" x="0px" y="0px"
	 viewBox="0 0 800 350" style="enable-background:new 0 0 800 350;" xml:space="preserve">
<style type="text/css">
	.st0{fill:#D50032;}
	.st1{fill:#FFFFFF;}
	.st2{fill:#44B2E8;}
	.st3{fill:#FFA600;}
	.st4{fill:#575E63;}
	.st5{fill:#00B2B2;}
</style>
<g>
	<path class="st0" d="M180,53c-67.3,0-122.1,54.8-122.1,122c0,67.3,54.8,122,122.1,122s122-54.8,122-122C302,107.7,247.3,53,180,53z
		"/>
	<g id="XMLID_75_">
		<g>
			<path class="st1" d="M287.3,174.5c0,59.5-48.4,107.9-107.9,107.9S71.6,234,71.6,174.5S120,66.6,179.5,66.6S287.3,115,287.3,174.5
				z M286.1,175c0-58.6-47.7-106.3-106.3-106.3c-58.7,0-106.3,47.7-106.3,106.3c0,25,8.6,48,23.2,66.2c13.6,17.1,32.2,29.8,53.7,36
				c9.4,2.7,19.3,4.2,29.5,4.2C238.4,281.3,286.1,233.6,286.1,175z"/>
			<path class="st1" d="M289.5,174.5c0,60.7-49.4,110-110,110s-110-49.3-110-110s49.3-110,110-110S289.5,113.8,289.5,174.5z
				 M179.4,282.4c59.5,0,107.9-48.4,107.9-107.9S238.9,66.6,179.4,66.6S71.6,115,71.6,174.5S119.9,282.4,179.4,282.4z"/>
			<path class="st2" d="M280.9,175.4c0,26.8-10.5,51.2-27.5,69.4v-51.3h-2.2v-28h-7.7v-26.2h-3.3v-1.9h-1.6v-25.7h-2.7v25.7h-5.1
				v-25.7h-2.7v25.7h-1.3v1.9h-4.4v26.2v10.6v17.4h-2.2v1.8h-5c0.7-3.9,0.7-7.6-0.7-11.9c-3.5-10.6-9.2-21.2-14.5-31.1
				c-2.2-4.2-4.6-9.3-8.1-12.8c-3.9-3.9-7.4-5-10.7-10.3c-3.4-5.5-5.9-12.1-9.1-18.1c1.6-5.4,3.6-5.8,9-8.5c2.7-1.4,5.5-2.7,8.2-4.1
				c0.9-0.4,1.5-1.8,1.1-2.8c-1.3-3.3,23.2-12.5,26.3-14.6c0.1-0.1,0.1-0.1,0.2-0.2C254.4,95.9,280.9,132.5,280.9,175.4z"/>
			<path class="st1" d="M179.8,68.7c58.6,0,106.3,47.7,106.3,106.3c0,58.7-47.7,106.4-106.3,106.4c-10.2,0-20.1-1.5-29.5-4.2
				l1.2-4.1c1.7,0.5,3.4,0.9,5.1,1.3c0.9-1.4,1.7-2.9,2.4-4.6c3.4-8.4,9.1-14,16.9-18.3c1.5-6.2,5.4-12,8.2-18
				c0.4-0.7,1.3-1.2,2.1-1.2c2.9,0,11.4-7.5,13.1-9.4c2.6-2.8,6.8-6.9,7.2-8.5c1-4.1-0.8-8.8-0.1-13c0.1-0.9,0.5-1.3,0.7-2
				c1.6-5.1,3.1-8.2,1.5-13.7c-3.6-12.4-10.9-25.4-17.6-36.4c-3.8-6.3-9.9-8.6-14.1-14.9c-4.5-6.8-7.2-14.5-11.2-21.3
				c-4.1-6.9-7-8.1-14.3-12.5c-2.1-1.3-5.6-2.7-7.3-4.6c-1.9-2.1-2-5.7-3.4-8.1c-0.1-0.1-0.2-0.2-0.4-0.3c-0.8-0.7-1.9-1.2-2.9-1.9
				c-0.9-0.5-1.7-1.1-2.6-1.6c-15.8,7.7-29.4,19.4-39.4,33.9c-11.2,16.3-17.8,36.2-17.8,57.5c0,23.9,8.3,45.9,22.1,63.3l-3.3,2.5
				C82.1,223,73.5,200,73.5,175C73.5,116.4,121.1,68.7,179.8,68.7z M253.4,244.8c17.1-18.2,27.5-42.6,27.5-69.4
				c0-42.9-26.5-79.5-64-94.4c-0.1,0.1-0.1,0.1-0.2,0.2c-3.1,2.1-27.6,11.3-26.3,14.6c0.4,1-0.2,2.4-1.1,2.8
				c-2.7,1.4-5.5,2.7-8.2,4.1c-5.4,2.7-7.5,3.1-9,8.5c3.2,5.9,5.8,12.6,9.1,18.1c3.3,5.3,6.8,6.4,10.7,10.3
				c3.5,3.5,5.9,8.6,8.1,12.8c5.3,9.8,11.1,20.4,14.5,31.1c1.4,4.3,1.4,8,0.7,11.9c-0.3,1.6-0.7,3.3-1.3,5
				c-1.5,4.9-0.1,10.1-1.1,15.3c-1,4.8-5.5,7.8-8.7,11.6c-3,3.6-7,7.3-11.2,9.5c-3.8,1.9-2.6,0.5-4.9,3.5c-1.6,2.2-2.5,5.4-3.7,7.8
				c-1,2-2.6,4.3-3.1,6.5v0.1c0.1,0.9,0.4,1.9,0.6,2.8c1.9,8.1,7.5,13.6,14.1,18.2c8.5-1.4,16.6-3.8,24.3-7.2v-73.1v-1.8h2.2v-17.4
				v-10.6v-26.2h4.4v-1.9h1.3v1.3h2.7v-1.3h5.1v1.3h2.7v-1.3h1.6v1.9h3.3v26.2h7.7v28h2.2L253.4,244.8L253.4,244.8z M193.4,85.1
				c5.2-2.1,10.7-4.1,15.7-6.9c-9.4-2.9-19.4-4.4-29.7-4.4c-13,0-25.4,2.4-36.8,6.9c1.4,1.2,2.6,2.4,3.5,3.7c1.5,2,1.5,5,2.7,7.1
				c0.4,0.4,1.4,0.9,1.9,1.2c4.4,2.2,9.7,5.1,13.5,8.3c1.2,1.1,2.3,2.2,3.4,3.5c0.9-1.6,2-2.9,4-4.2c2.6-1.7,5.7-3,8.6-4.3
				c3.1-1.4,2.4-1.6,3.8-3.5C186.9,88.4,188.5,87,193.4,85.1z M179.4,276.9c2.4,0,4.8-0.1,7.2-0.3c-4.3-3.5-8-7.6-10-12.5
				c-0.6-1.6-1-3.1-1.2-4.6c-5.5,4.3-8.9,10.1-12.4,16C168.3,276.5,173.8,276.9,179.4,276.9z"/>
			<polygon class="st3" points="238.6,137.4 238.6,138.7 235.9,138.7 235.9,137.4 235.9,111.7 238.6,111.7 			"/>
			<polygon class="st3" points="230.8,137.4 230.8,138.7 228.1,138.7 228.1,137.4 228.1,111.7 230.8,111.7 			"/>
			<path class="st2" d="M220.2,195.3v73.1c-7.6,3.4-15.8,5.8-24.3,7.2c-6.6-4.5-12.3-10.1-14.1-18.2c-0.2-0.9-0.5-1.9-0.6-2.8v-0.1
				c0.5-2.2,2.1-4.5,3.1-6.5c1.1-2.4,2.1-5.6,3.7-7.8c2.2-3,1.1-1.6,4.9-3.5c4.3-2.2,8.3-5.9,11.2-9.5c3.2-3.8,7.7-6.8,8.7-11.6
				c1-5.2-0.4-10.4,1.1-15.3c0.5-1.7,1-3.4,1.3-5L220.2,195.3L220.2,195.3z"/>
			<path class="st4" d="M208.6,185.6c1.6,5.4,0.1,8.6-1.5,13.7c-0.2,0.7-0.6,1.2-0.7,2c-0.7,4.1,1.1,8.9,0.1,13
				c-0.4,1.7-4.6,5.7-7.2,8.5c-1.7,1.9-10.2,9.4-13.1,9.4c-0.8,0-1.7,0.5-2.1,1.2c-2.9,6-6.7,11.8-8.2,18
				c-7.9,4.4-13.6,9.9-16.9,18.3c-0.7,1.7-1.5,3.2-2.4,4.6c-1.7-0.4-3.4-0.8-5.1-1.3c-1.6-38-3.2-75.6-4.8-113.3c-2.4,0-4.7,0-6.9,0
				v-3.5c1,0,1.9-0.6,2.5-1.5c0.8-1.4,1.3-2.9,1.7-4.5c1-4.3-0.1-8.1-2.9-10.6c-0.4-0.4-0.9-0.7-1.4-1.1c-0.9-0.7-2-1.2-3.2-1.6
				c-1.5-0.5-3.1-0.6-4.9-1c0.1-0.7,0.3-1.4,0.4-2.1c0.4-3-0.3-5.5-2.7-7.4c-0.2-0.2-0.5-0.4-0.7-0.5c-0.2-0.2-0.4-0.3-0.5-0.4
				s-0.1-0.1-0.2-0.1c-1.7-1.1-3.5-1.5-5.4-1.3c0.1-1.7-0.2-2.5-1.3-3.6c-1.3-1.2-3-1.6-4.1-1.6H117c-0.1,0-0.2,0-0.4,0
				c-1.7-0.1-3.4-0.2-5.1,0.1c-2,0.5-3.7,1.4-5.1,2.5L95.7,118c10-14.5,23.5-26.2,39.4-33.9c0.9,0.6,1.7,1.1,2.6,1.6
				c0.9,0.6,2.1,1.1,2.9,1.9c0.2,0.1,0.2,0.2,0.4,0.3c1.4,2.4,1.5,6,3.4,8.1c1.7,1.9,5.2,3.3,7.3,4.6c7.2,4.4,10.2,5.5,14.3,12.5
				c4.1,6.9,6.8,14.6,11.2,21.3c4.2,6.3,10.3,8.6,14.1,14.9C197.7,160.2,205,173.2,208.6,185.6z"/>
			<path class="st2" d="M209.1,78.2c-5,2.7-10.5,4.7-15.7,6.9c-4.9,2-6.5,3.3-9.4,7.3c-1.4,1.9-0.7,2.1-3.8,3.5
				c-2.8,1.3-5.9,2.6-8.6,4.3c-2,1.2-3.1,2.6-4,4.2c-1-1.2-2.1-2.4-3.4-3.5c-3.7-3.1-9.1-6-13.5-8.3c-0.5-0.2-1.5-0.7-1.9-1.2
				c-1.3-2.1-1.3-5.1-2.7-7.1c-0.9-1.3-2.1-2.5-3.5-3.7c11.4-4.5,23.8-6.9,36.8-6.9C189.7,73.8,199.7,75.3,209.1,78.2z"/>
			<path class="st4" d="M186.6,276.6c-2.4,0.2-4.8,0.3-7.2,0.3c-5.6,0-11.1-0.5-16.4-1.4c3.5-5.9,6.9-11.7,12.4-16
				c0.2,1.5,0.6,3,1.2,4.6C178.6,269,182.3,273.1,186.6,276.6z"/>
			<path class="st1" d="M151.5,273l-1.2,4.1c-21.4-6.2-40.1-18.9-53.7-36l3.3-2.5c8.3,10.4,18.6,19.2,30.4,25.7
				c1.5-34.8,3-69.5,4.4-104.5c1.7,0,3.4,0,5,0c2.2,0,4.5,0,6.9,0C148.2,197.4,149.8,235,151.5,273z"/>
			<path class="st3" d="M115.7,138.8c-4-0.1-7.3-3.7-7.6-8c-0.3-4.9,2-8.1,6.4-8.8c1.2-0.2,2.6,0.1,3.9-0.1c0,0,0,0,0.1,0l0,0
				c0.6-0.1,1.1-0.5,1.7-0.8c-0.5-0.5-1-1.4-1.5-1.4c-1.7-0.2-3.5-0.2-5.1,0.1c-3.3,0.7-5.7,2.7-6.9,5.4c-0.2,0.4-0.4,0.8-0.5,1.2
				c-0.1,0.1-0.1,0.3-0.1,0.5c-0.1,0.4-0.2,0.7-0.2,1.1c0,0.3-0.1,0.5-0.1,0.8c-0.1,0.5-0.1,1.1,0,1.7c0,0.1,0,0.2,0,0.3
				c0.5,4.5,4.1,8.1,8.3,8.1C114.5,138.9,115.1,138.9,115.7,138.8z M141,139.6c2.7,2.5,3.9,6.3,2.9,10.6c-0.4,1.5-0.9,3.1-1.7,4.5
				c-0.6,1-1.5,1.5-2.5,1.5c-0.4,0-0.9-0.1-1.3-0.3c-1.3-0.5-1.2-1.6-1.1-2.7c0-0.1,0-0.1,0-0.2c0-0.1,0-0.2,0.1-0.2
				c0.1-0.9,0.2-1.9,0.3-2.7c0.1-0.4,0.1-0.9,0.1-1.3v-0.1c0-1.7-1-2.5-2.7-2.1c-2.2,0.5-4.3,1.1-6.5,1.6c-1.6,0.4-3.3,0.7-5,0.6
				c-3.9-0.2-6.4-2.8-6.1-5.8c0-0.4-0.1-0.8-0.2-1.4c-0.9,0-1.8,0-2.7,0c-5.8-0.1-10-3.3-11.5-8.8c-1.2-4.5,0-8.7,3-11.3
				c1.4-1.1,3-2,5.1-2.5c1.6-0.4,3.4-0.3,5.1-0.1c0.1,0,0.2,0,0.4,0h0.1c1.1,0.1,2.8,0.4,4.1,1.6c1.1,1.1,1.5,1.9,1.3,3.6
				c1.9-0.1,3.7,0.2,5.4,1.3c0.1,0,0.1,0,0.2,0.1s0.4,0.2,0.5,0.4c2.6,2,3.3,4.7,2.9,7.8c-0.1,0.7-0.3,1.4-0.5,2.2
				c2,0.4,3.7,0.6,5.4,1.1c1.2,0.4,2.4,0.9,3.4,1.5C140.2,138.8,140.6,139.2,141,139.6z M140.9,143.9c0.7,2.1,0.7,4.7-0.5,7.2
				c0-0.7,0.1-1.3,0.1-1.9c0.1-0.8,0-1.5-0.2-2.1c0.1,0.5,0.1,1,0.1,1.5c-0.1,1-0.1,1.9-0.2,3.1c0.1-0.1,0.2-0.4,0.2-0.5
				c0,0.4,0,0.9-0.1,1.4C142,149.5,142.1,146.4,140.9,143.9z M124.6,127.1c0.6,0,1.1,0.1,1.6,0.2c-0.7-0.4-1.7-0.6-2.7-0.6
				s-1.9,0.1-2.8,0.1c0.3,0.2,0.5,0.4,0.8,0.4C122.5,127.3,123.5,127.1,124.6,127.1z M120.5,138.1c-0.1,0-0.3,0-0.5,0
				c-1.4,0.1-2.9,0.5-4.3,0.7C117.3,138.8,118.9,138.3,120.5,138.1z"/>
			<path class="st3" d="M140.4,151.1c1.2-2.5,1.3-5,0.5-7.2c1.1,2.5,1.1,5.6-0.6,8.6C140.4,152,140.4,151.5,140.4,151.1z"/>
			<path class="st3" d="M140.3,147.1c0.2,0.6,0.3,1.4,0.2,2.1c0,0.6-0.1,1.2-0.1,1.9c0,0.2-0.2,0.4-0.2,0.5c0.1-1.2,0.1-2.1,0.2-3.1
				C140.4,148,140.4,147.5,140.3,147.1z"/>
			<path class="st4" d="M139.7,156.2v3.5c-1.7,0-3.3,0-5,0c-1.5,35-2.9,69.7-4.4,104.5c-11.7-6.5-22-15.2-30.4-25.7
				c-13.8-17.4-22.1-39.4-22.1-63.3c0-21.3,6.6-41.2,17.8-57.5l10.7,3.5c-3,2.6-4.2,6.8-3,11.3c1.5,5.5,5.7,8.7,11.5,8.8
				c0.9,0,1.8,0,2.7,0c0.1,0.6,0.2,1,0.2,1.4c-0.3,3,2.2,5.6,6.1,5.8c1.6,0.1,3.3-0.2,5-0.6c2.2-0.5,4.3-1.1,6.5-1.6
				c1.8-0.4,2.7,0.4,2.7,2.1v0.1c0,0.4,0,0.9-0.1,1.3c-0.1,0.6-0.2,1.3-0.2,1.9c0,0.4-0.1,0.7-0.1,1.1c0,0.1,0,0.2,0,0.2
				c-0.1,1.1-0.2,2.1,1.1,2.7C138.9,156.1,139.3,156.2,139.7,156.2z"/>
			<path class="st3" d="M136.4,136.9c1.2,0.4,2.3,0.9,3.2,1.6c-1-0.7-2.1-1.2-3.4-1.5c-1.7-0.5-3.4-0.7-5.4-1.1
				c0.2-0.8,0.4-1.5,0.5-2.2c0.4-3.1-0.3-5.8-2.9-7.8c0.2,0.1,0.5,0.2,0.7,0.5c2.4,1.9,3.1,4.5,2.7,7.4c-0.1,0.7-0.2,1.4-0.4,2.1
				C133.3,136.3,134.9,136.4,136.4,136.9z"/>
			<path class="st5" d="M137.8,150c0,0.9-0.2,1.8-0.3,2.7c0,0.1-0.1,0.1-0.1,0.2c0-0.4,0.1-0.7,0.1-1.1
				C137.6,151.3,137.6,150.6,137.8,150z"/>
			<path class="st3" d="M126.2,127.3c-0.5-0.1-1-0.2-1.6-0.2c-1,0-2,0.1-3.1,0c-0.3,0-0.5-0.2-0.8-0.4c0.9,0.1,1.9-0.1,2.8-0.1
				C124.5,126.7,125.4,127,126.2,127.3z"/>
			<path class="st3" d="M120,138.1c0.2,0,0.3,0,0.5,0c-1.6,0.2-3.1,0.7-4.7,0.7C117.2,138.6,118.6,138.2,120,138.1z"/>
			<path class="st3" d="M120,121c-0.5,0.3-1.1,0.7-1.7,0.8c-1.1-0.5-2.5-0.6-2.5-0.6v-0.1c-1.2,0-2.3-0.1-3.4,0.1
				c-2.9,0.4-4.9,1.8-6,3.9c1.2-2.7,3.6-4.7,6.9-5.4c1.6-0.4,3.4-0.3,5.1-0.1C119.1,119.6,119.6,120.5,120,121z"/>
			<path class="st3" d="M118.3,121.8L118.3,121.8C118.3,121.9,118.3,121.9,118.3,121.8c-1.3,0.2-2.7-0.1-3.9,0.1
				c-4.4,0.7-6.7,4-6.4,8.8c0.3,4.3,3.6,7.9,7.6,8c-0.6,0.1-1.2,0.1-1.7,0.1c-4.2,0-7.8-3.6-8.3-8.1c0-0.1,0-0.2,0-0.3
				c-0.1-0.6-0.1-1.2,0-1.7c0-0.3,0-0.5,0.1-0.8c0-0.4,0.1-0.7,0.2-1.1c0-0.2,0.1-0.3,0.1-0.5c0.1-0.4,0.2-0.9,0.5-1.2
				c1.1-2.1,3.1-3.5,6-3.9c1.1-0.2,2.2-0.1,3.4-0.1v0.1C115.9,121.2,117.3,121.3,118.3,121.8z"/>
		</g>
	</g>
	<g id="XMLID_74_">
		<g>
			<path class="st1" d="M253.5,193v51.3c-0.4,0-11.1,10.5-14.1,12.6c-7.7,5.2-19.2,10.9-19.2,10.9V193h2.2v-54.2h4.4v-1.9h1.4v-25.8
				h2.7v25.8h5.1v-25.8h2.7v25.8h1.6v1.9h3.3V165h7.7v28H253.5z"/>
		</g>
	</g>
	<g>
		<path class="st4" d="M354.2,129h-14.4l-0.1-31.3H324V86.2h46v11.5h-15.7L354.2,129L354.2,129z"/>
		<path class="st4" d="M403.5,114.2h-14.8v14.7h-14.4V86.2h14.4V102h14.7V86.2h14.4V129h-14.4L403.5,114.2L403.5,114.2z"/>
		<path class="st4" d="M421.9,86.2h37.4v10.3h-23.1c0,4.1-0.1,4.9-0.1,6.3h19.5v9.8h-19.4v6H460V129h-38.2L421.9,86.2z"/>
		<g>
			<path class="st4" d="M323.7,184c0-3.4,2.8-7.5,5.9-9.2c-2.8-1.5-5.4-4.5-5.4-8.1c0-7.2,5.2-12.8,15.6-12.8h24.1v42.8H339
				C330.4,196.7,323.7,192,323.7,184z M341,166.3c0,1.6,0.7,3.7,3.1,3.7h6.9v-7.5h-7.2C341.4,162.6,341,164.6,341,166.3z
				 M341.2,183.1c0,1.5,0.5,3.6,3,3.6h6.8v-7.5h-7.2C341.5,179.2,341.2,181.4,341.2,183.1z"/>
		</g>
		<path class="st4" d="M402.4,191.4h-19.1l-2.8,5.3h-14.2l21.7-42.9h11.9l20.7,42.9h-15.7L402.4,191.4z M387.3,180.7h10.5l-5.3-11.5
			L387.3,180.7z"/>
		<path class="st4" d="M489.6,180.2l-2.8,2.5v14h-14.4V154h14.4v12.7l13.8-12.7h15.2l0.7,1.6l-17.3,15.9l17.7,23.4l-0.5,1.9h-14.8
			L489.6,180.2z"/>
		<path class="st4" d="M564,196.7l-8.1-22.1c-2.3,7.4-4.7,14.6-7.3,22.1h-10.4l-16.7-41.2l0.5-1.6h14.5l7.6,19
			c1.9-6.7,3.5-12.4,5.6-19h12.5l7.4,19.6c2.4-6.8,4.1-12.8,6.6-19.6h13l0.5,1.6l-16,41.2H564z"/>
		<path class="st4" d="M660.2,181.6H659v15.1h-14.2l-0.1-42.8h25.1c10.9,0,16.6,5.3,16.6,13.4c0,6.2-4.9,10.9-11.3,12.9l14.6,14.6
			l-0.9,1.8h-14.3L660.2,181.6z M667.4,162.5H659v8.3h8.1c3.3-0.1,5-2.3,5-4.1C672,165,670.8,162.5,667.4,162.5z"/>
		<path class="st4" d="M379.3,218.2h14.3V261h-14.3V218.2z"/>
		<path class="st4" d="M417.3,261.1l-21.1-41.4l0.5-1.5h13.9l11.9,25.1l11.5-25.1h13.7l0.5,1.4l-20.3,41.5H417.3z"/>
		<path class="st4" d="M450.9,218.2h37.4v10.3h-23.1c0,4.1-0.1,4.9-0.1,6.3h19.5v9.8h-19.4v6H489V261h-38.2L450.9,218.2z"/>
		<path class="st4" d="M617.6,153.8h-11.9L584,196.7h14.2l2.8-5.3h19.1l2.4,5.3h15.7L617.6,153.8z M606.9,180.4l5.2-11.5l5.3,11.5
			H606.9z"/>
		<path class="st4" d="M526.1,244c6.4-2,11.3-6.8,11.3-12.9c0-8.1-5.7-13.4-16.6-13.4h-25.1l0.1,42.8H510v-15.1h1.1l14.4,15.1h14.3
			l0.9-1.8L526.1,244z M517.4,234.5h-8.1v-8.2h8.4c3.4,0,4.6,2.4,4.6,4.2C522.4,232.3,520.7,234.4,517.4,234.5z"/>
		<path class="st4" d="M358.4,245c6.4-2,11.3-6.8,11.3-12.9c0-8.1-5.7-13.4-16.6-13.4H328l0.1,42.8h14.2v-15.1h1.1l14.4,15.1h14.3
			l0.9-1.8L358.4,245z M349.7,235.6h-8.1v-8.2h8.4c3.4,0,4.6,2.4,4.6,4.2C354.6,233.3,352.9,235.5,349.7,235.6z"/>
		<path class="st4" d="M452.1,185.7c-4.3,0-8.2-0.6-11-2.4c-3-1.4-5.2-4.2-5.2-8.7c0-2.9,0.9-5,2.3-6.6c2.5-4,7.7-4.7,13.8-4.7
			c4.8,0,8.9,1.8,11.8,4.3l3.6-7.5c-4-4.1-11.9-7.5-21.4-7.5c-14.8,0-24.7,8.5-24.7,22.4c0,14.9,11.1,22.5,25.4,22.5
			c10.7,0,16.9-4.4,20.6-8.1l-3.9-8.3C460.7,183.8,456.7,185.7,452.1,185.7z"/>
		<path class="st4" d="M717.9,196.6h-20.7v-42.8H720c15,0,22.2,10.1,22.2,21.4C742.1,187.3,733.9,196.6,717.9,196.6z M715.6,164.8
			h-4.2v20.8h4c8.4,0,12.7-4.5,12.7-10.1C728.1,169.3,725.5,164.8,715.6,164.8z"/>
	</g>
	<path class="st1" d="M146.7,159.8c-2.5,0-4.9,0-7.3,0c-1.8,0-3.5,0-5.3,0c-1.5,35-4.7,104.8-4.7,104.8l22.2,8.7
		C150.1,235.2,148.4,197.4,146.7,159.8z"/>
	<path class="st1" d="M136.4,136.9c-1.6-0.5-3.4-0.7-5.3-1c0.2-0.8,0.3-1.5,0.4-2.2c0.4-3.1-0.3-5.8-2.9-7.8c-1.9-1.5-3.9-2-6.1-1.8
		c0.1-1.7-0.3-2.5-1.4-3.6c-1.3-1.3-3-1.6-4.1-1.7l0,0h-0.1c-0.1,0-0.3,0-0.4,0c-1.7-0.1-3.4-0.2-5.1,0.2c-6.5,1.4-9.8,7.3-8.1,13.8
		c1.5,5.5,5.7,8.7,11.5,8.8c0.9,0,1.8,0,2.7,0c0.1,0.6,0.2,1,0.2,1.4c-0.3,3,2.2,5.6,6.1,5.8c1.6,0.1,3.3-0.2,4.9-0.6
		c2.2-0.5,4.3-1.2,6.4-1.6c1.9-0.4,2.8,0.4,2.8,2.3c0,1.3-0.3,2.7-0.4,4c-0.2,1.2-0.5,2.6,1,3.2c1.6,0.7,3,0.1,3.8-1.2
		c0.8-1.4,1.4-3,1.7-4.5C145.5,143.8,142.5,138.7,136.4,136.9z"/>
</g>
</svg>
