<?xml version="1.0" encoding="utf-8"?>
<!-- Generator: Adobe Illustrator 27.0.0, SVG Export Plug-In . SVG Version: 6.00 Build 0)  -->
<svg version="1.1" id="Layer_1" xmlns="http://www.w3.org/2000/svg" xmlns:xlink="http://www.w3.org/1999/xlink" x="0px" y="0px"
	 viewBox="0 0 1585.7 1390" style="enable-background:new 0 0 1585.7 1390;" xml:space="preserve">
<style type="text/css">
	.st0{fill:url(#SVGID_1_);}
	.st1{fill:none;stroke:#77ABF7;stroke-width:6;stroke-miterlimit:10;}
	.st2{fill:none;stroke:#77ABF7;stroke-width:3;stroke-miterlimit:10;}
	.st3{fill:#77ABF7;}
</style>
<g id="Layer_4">
	
		<radialGradient id="SVGID_1_" cx="792.85" cy="694.55" r="745.3223" gradientTransform="matrix(1 0 0 -1 0 1390)" gradientUnits="userSpaceOnUse">
		<stop  offset="0" style="stop-color:#E8E8E8"/>
		<stop  offset="1" style="stop-color:#B0B0B0"/>
	</radialGradient>
	<rect y="0.9" class="st0" width="1585.7" height="1389.1"/>
	<path class="st1" d="M612.3,0c0.7,4.8,31.6,51.2,35.9,83.6c1.4,10.7,13.1,11.8,21.4,24.8c3,4.8,3,16.8,5.3,22
		c4.4,10,24.5,36.1,24.5,36.1s22.3,15.2,28,46.9c1.4,7.9-8.9,27.5-8.9,27.5s10.4,29.2,8.9,39.7c-1,7.2-11.8,24.3-11.8,24.3
		s-16.1,20-19.2,27.8c-3.6,8.9-4.7,29.3-1.6,38.4c3,8.7,16.7,22.2,23.7,28.1c8.4,7.1,37.8,22.4,37.8,22.4l30.2,15.1l10.8,2
		c3.5,0.6,7.1,0.3,10.4-0.9l15.6-5.9l17.1,26l-2.4,25.4l4.5,27l24.8,22.2l21.1,22.3l20.3,35.9l12.4,25.6l1.6,55l-39.9,20.8L857,704
		l-174.2,73.2l-26,8.9L602,879.6l-74.8,60.5l-39.8,21.2l-9.9,7l-48,34l-44.3,17.7c-3.6,1.4-6.6,4.2-8.2,7.7l-22.3,46.5l-41.2,60.9
		l-20.9,67l0.6,63l-8.1,47.2l-37.5,39.5l-31.3,19.4l-14.6,18.7"/>
	<path class="st1" d="M866.2,249.8L844,269.4l-20.8,20c-3.2,3.1-5.3,7.2-5.9,11.7c-0.9,6.5-1.8,17.9-1.9,37
		c-0.1,35,1.4,68.2,1.4,68.2l6.5,25.7"/>
	<polyline class="st1" points="918.1,606.6 942.4,606 956.3,606.8 967.9,609.1 	"/>
	<path class="st2" d="M496.3,0c0,0,17.6,33.4,19.1,45.7c1.4,11.5-7.5,45.7-7.5,45.7l15.2,27.1l20.6,22l15.3,28.8l3,22l-6.4,27.1
		l3.4,32.2c0,0-4.9,21-1.9,27.1c3,6.2,18.1,12.1,20.2,18.6c1.5,5-4.6,20.3-4.6,20.3l3.5,23.4l15.5,32.9c0,0,12,25.9,12.9,35.3
		c0.6,7.1-5.8,20.9-4.8,28c0.7,4.9,8.4,17.8,8.4,17.8l1.8,16c0,0-9.7,8.3-10.2,12.2c-0.5,3.7,6.1,13.5,6.1,13.5l10.1,21.9l12.3,24.9
		l6,6c0,0,17.1,6,19.5,11c1.3,2.8-0.3,9.6-2.1,12.1c-2.3,3.2-12.1,4-13.9,7.6c-2.2,4.4,2.5,19.6,2.5,19.6s8.6,7.8,9.3,11.5
		c0.7,3.8-6.3,10.9-5.1,14.6c1.2,3.5,10.1,6.8,10.4,10.5c0.6,5.7-12.8,13.4-12.6,19.1c0.1,3.1,9.3,8.4,9.3,8.4l1.6,11.4l-1.1,5.3
		l-4,18.4l-0.4,20.9l-1.9,11.6c-3.9,15.7,1.9,13.4,10.7,4.5l0,0c3.5-5,7.1-5.6,11.2-3.2c6.7,3.9,8.5,12.8,4.3,19.3l-8.1,12.7
		c-1.5,2.3-3.3,4.3-5.6,5.9l-35.2,25.2L601,814.4c-1.6,1.4-3.2,2.8-4.9,3.8c-4.8,3-27.7,40.1-45.9,64.3c-16.9,22.5-3.2,11.5-38,44.9
		C486,953.2,415,987,402.1,989.3c0,0-36.8,15.7-50.6,22.9c-13.8,7.1-44.3,14.3-51.8,44.9s-0.2,44.5-4.3,56s-7.2,18.6-6,24.5
		s-4,21.9,1.6,29.2s4.9,20.1,4.9,20.1"/>
	<path class="st1" d="M487.4,961.3l78.9,23.5L615,990l58.4,12.1l60.3,14.3l52.7,32.9l85,4.8l21.4-3.8l22.4-8l20.2-1.2l5.9-6
		c2.8-2.8,7.5-2,9.1,1.6l4.6,9.7c0.9,2,2.3,3.7,4,5.1l3.4,2.8c4.1,3.4,10,3.7,14.4,0.7l1.6-1.1c4.4-3,10.3-2.8,14.5,0.5l16.9,13
		l10,6.5c4.8,3.1,11.2,2.1,14.8-2.4l6.6-8.3l-14.9-23.9c-1.9-3-2.2-6.7-0.9-10l3.5-8.8c1-2.5,3-7.5,5.3-9l6.4-7
		c2.9-1.9,4.9-5,5.5-8.4l6.2-34.4l7.6-21.2l-0.6-9.7c-0.3-4.5,2.8-8.6,7.2-9.7l11.7-2.7"/>
	<path class="st1" d="M1041.1,1063.1l11.1,4.8c5.3,2.3,8.3,7.9,7.4,13.6l0,0c-0.8,4.8,2.9,9.2,7.8,9.2h3.3c1.9,0,3.7,0.6,5.3,1.6
		l14.8,9.8c1,0.6,2,1.1,3.1,1.4l17.4,4.3l18.9,3.5l10.5,6.1c4.8,2.8,11,1.6,14.4-2.8l0.9-1.2l13.1-4.7l12-3.7l6.9-9l4-19.3l8.5-22.5
		l9.2-15.1"/>
	<polyline class="st1" points="1297.7,1107.6 1235,1105.4 1181.2,1104.9 	"/>
	<path class="st2" d="M871.4,1054.1l33.1,27.5c0,0-4.5,11.4-2.3,14.3c4.1,5.6,21.4,0.5,27.3,4.2c4.2,2.6,7.3,13.4,11.4,16.2
		c4.2,2.8,16.6,0.5,19.6,4.5c2.3,3-3.2,12.2-0.8,15.2c6.3,7.8,30.1,2.9,39.6,6c3.8,1.2,12.5,3.7,14.2,7.3c1.3,2.8-4.5,9.7-2.5,12
		c4.1,4.7,18.7-2.7,24.9-1.9c6.7,0.9,25.5,8.9,25.5,8.9l18.3,15.1l11.3,11.1l18.5,8.7l26.4,4.5h37.4l28.4-4l26.5,7.8l16.5,3.8
		l12.2,7.1l31.7-0.8l26.6-13.9l21.7,6.2l33.8-10.2l53.7-24.6l46.3-9.9l62.5-6.2l52.5-15.8"/>
	<path class="st3" d="M667.6,0c0,0,0.5,27,20.3,41.6s45.4,36.5,44.5,45.7s37.9,65.8,37.9,65.8s33.6,52.9,43,56.6
		s50.6,39.4,49.8,47.9s2.3,35.6,1.6,42.4c-0.3,3.1,5.2,17,11.6,32.9l0,0c0,0.3,0,0.6-0.1,0.9c0.3,0.4,0.6,0.7,0.9,1.1
		c0,0,0,0.1,0.1,0.1c1.6,4.1,3.3,8.3,5,12.5c0,0.1,0,0.2,0.1,0.3c2.2,7.7,3.9,15.5,8.3,22.2c1.2,3.5,2.2,6.6,2.9,9.4
		c-0.3,1.3,0.4,2.7,0.9,4c0.9,5.3,2.1,10.6,3.2,15.4c0.1,1.2,0.1,2.4,0.1,3.7c-0.1,4.6,1,8.8,4.2,12.2c1.1,3.7,1.8,5.9,1.8,5.9
		c-1.9,4.6,0,8.8,2.9,11.9c2.6,2.7,2.7,5.5,2.7,8.6c-0.1,4,1.4,7,5.2,8.8c0,0,19.1,11.9,14.1,15.2c-4.8,3.3-16-22.5-13.7,1
		c0,0.6,0.1,1.4,0.3,2.4c3.3,27.7-2.9,13.8,4.6,33.5c0.3,1.1,0.6,2,1,2.6c1.8,4.9,3.8,11,5.8,17.4c-1,0.5-1.5,1.2-0.9,2.6
		c1.1,2.7,1.5,5.7,3.4,8.7c0.2-0.8,0.3-1.6,0.3-2.4c5.5,18,10.3,35.5,10.3,35.5c0.6,5.6,2.3,10.9,6.1,15c1.7,1.9,3.1,3.8,4.3,5.9
		c1.4,2.6,2.6,5.4,4.2,8c1.7,2.8,4.4,3,5.7,0.3s3.2-3,5.7-2.9l-1.9,6.5c-0.6,0.2-1.2,0.6-1.9,1c0.5,0.1,1,0.1,1.5,0.2l-1.5,5.2
		c-1.4,1.5-3.6,1-5.5,1.4c0,0.6-0.1,1.1-0.1,1.7c2.1,2.3,0.9,5.1,1,7.7l-1,1.9l0,0c-4.1,0.9-3.7,4.3-3.8,7.1
		c-0.2,5.3,0.2,10.7-0.2,16c-0.2,3.6,1,5.8,4,7.7c1,0.6,2,1,3,1.2l0.4,1.6l3.3,38.6c-0.1,3.4,0.8,6.5,1.9,9.7
		c0.7,2.1,3.5,3.4,3.2,4.7c-1.3,5.5,1.3,9.2,3.8,13.5c1.2,2.1,2.2,4.4,3.9,6.1l4.2,7.2c0.1,0.6,0.2,1.3,0.2,2c0,1.3,0.1,2.7,1.4,3.6
		c3.3,2,3.5,6,5.5,8.8c1.3,1.9,2.1,4.4,3.7,6.3c3.1,3.8,5.7,7.8,7.2,12.4c0.9,2.6,2.2,4.8,4.7,6.2l-1.5,28.9c0,0,6.5,9.6,14,20.6
		c-0.1,0.1-0.3,0.3-0.4,0.4c0.3,0.3,0.5,0.5,0.8,0.8c0.1,0,0.3,0,0.4,0c6.6,9.6,14,20,18.4,25.9c0.6,1.7,1.9,3.1,3.6,4.4
		c0.3,0.3,0.7,0.6,1.2,1c1.2,1.1,2.3,2.4,3.6,3.4c1,0.7,2,1.4,3.1,2.1c3.8,3,8.4,6.7,12.9,10.2c-1.9,2.6-0.5,5,3.2,6
		c3.5,0.9,6.9,2.3,9.8,4.2c2.7,2.1,4.5,3.5,4.5,3.5l0.6,0.7c2,2.7,1.2,7.2,1.9,10.8c0.1,0.3-0.1,0.6-0.2,1.1
		c-1.8,1.1-4.1,0.2-6.1,1.1c1.3,0.7,2.7,0.4,4,0.5c1.1,0.1,1.9,0.6,2.1,1.8c0.5,4.5,2.2,9,0.1,13.5l-8.6,6.6l11.9,35
		c-0.3,0.5-0.1,1.1,0.5,1.4c0,0,8.1,14.6,20.4,22.3c1.7,1.9,3.9,3,4,6.3c0.1,2.5,3.2,3.4,5.8,2.3c0.8-0.3,1.5-0.6,2.4-1
		c0.2,0.8,0.6,1.4,0.6,2c-0.2,4.7,2.1,7.6,6.2,9.8c2.5,1.3,4.7,3.2,7,4.8c2.8,2,5.5,4.2,9.2,4.6c1.7,0.2,3.3,1.6,4.9,2.5
		c0.9,0.5,1.4,1.2,1.6,2.3c0.7,4,3.1,5.8,6.9,5.6c2.8-0.2,5.6,1.4,5.6,4c0,4.2,2.7,5.1,5.7,5.7c8,1.5,5.9,3.3,10.7-4
		c1.8-2.7,4-4.8,6.8-6.4c2.8-1.5,5.4-3.3,8.1-5c2.6-2.4,5.8-3.9,8.6-5.8c1.2-0.8,2.2-0.4,2.6,1.2c1.2,4.4,2.5,8.7,3.7,13.1
		c0.1,0.4,0.2,0.8,0.2,1.2c2.4,6.1,2.2,12.4,1.8,18.7c0.1,0.7,0.1,1.4,0.2,2.1c2.3-0.9,3.3,1,4.6,2.1c1.5,1.4,2.8,1.6,4.2,0
		c0.4-0.5,1-0.9,1.4-1.4c3.4-3.2,3.4-3.2,1-7.3c-1.4-2.4-2.5-5-3.4-7.7c-0.8-2.4-1-5-3.5-6.9c-2-1.5-1.2-4,1.1-5.5
		c5.6-3.7,9.8-8.8,14.2-13.8c1.5-1.7,2.6-4,5.3-4.1c2.2-1.5,4.1,0.3,6.1,0.6l19.1,18.4c-0.9,2.7-2.9,4.8-4.5,7.2
		c-3.2,4.8-2.7,6.8,2.4,9.2l-17.9,24c-5.2,1.6-10.1,4.3-15.6,4.8c-1.9,0.2-2.7,2.5-4.8,3.6c2.4,1.7,3.1,3.9,3.7,6.1
		c0.9,3.7,3,6.5,5.9,9c2.8,2.4,5.3,5,8,7.5c2,1.9,3.7,4.6,7.1,2.4c0.6,0.4,1.2,0.7,1.7,0.8l30.6,14.5c0,0,35.3,13.4,52.2,13.6
		c14.4,0.1,43.7,3.8,51.9,4.8c0.1,0.1,0.2,0.1,0.3,0.2c0.6,0,1.2,0.1,1.9,0.1c0,0,3,0.7,7.4,1.6c0.1,0.2,0.1,0.4,0.1,0.6
		c-0.1,2.6,1.2,2.6,3.4,2.7c3.3,0.2,6.4,0.6,9.7-0.7c0.1,0,0.1,0,0.2-0.1c1.7,0.3,3.5,0.5,5.1,0.8c0.5,0.4,1,1,1.4,1.7
		c2.3,3.9,8.4,3,10.1-0.9c2.3-0.1,5.9,0.2,10.3,0.8c-0.1,0.7,0.1,1.4,0.6,2.2c1.1-0.7,2.2-1.2,3.3-1.6c15.4,2.6,35.7,7.6,35.7,7.6
		l17.5-10.2c14.1-1.2,28.1-2.7,42-5.6c18.3,4.3,60.7-19.3,60.7-19.3V0.9L667.6,0z M960.8,609.1l-0.4,1.4
		C960.3,609.9,960.3,609.4,960.8,609.1z"/>
</g>
</svg>
