<?xml version="1.0" encoding="utf-8"?>
<!-- Generator: Adobe Illustrator 27.0.0, SVG Export Plug-In . SVG Version: 6.00 Build 0)  -->
<svg version="1.1" id="Layer_1" xmlns="http://www.w3.org/2000/svg" xmlns:xlink="http://www.w3.org/1999/xlink" x="0px" y="0px"
	 viewBox="0 0 36 36" style="enable-background:new 0 0 36 36;" xml:space="preserve">
<style type="text/css">
	.st0{fill:#D50032;}
	.st1{fill:#FFFFFF;}
	.st2{fill:#44B2E8;}
	.st3{fill:#FFA600;}
	.st4{fill:#575E63;}
	.st5{fill:#00B2B2;}
</style>
<g>
	<path class="st0" d="M18,0.5C8.4,0.5,0.5,8.4,0.5,18c0,9.7,7.9,17.5,17.5,17.5S35.5,27.6,35.5,18C35.5,8.3,27.7,0.5,18,0.5z"/>
	<g id="XMLID_75_">
		<g>
			<path class="st1" d="M33.4,17.9c0,8.5-6.9,15.5-15.5,15.5S2.5,26.5,2.5,17.9S9.4,2.5,17.9,2.5S33.4,9.4,33.4,17.9z M33.2,18
				c0-8.4-6.8-15.2-15.2-15.2C9.6,2.8,2.7,9.6,2.7,18c0,3.6,1.2,6.9,3.3,9.5c2,2.5,4.6,4.3,7.7,5.2c1.3,0.4,2.8,0.6,4.2,0.6
				C26.4,33.2,33.2,26.4,33.2,18z"/>
			<path class="st1" d="M33.7,17.9c0,8.7-7.1,15.8-15.8,15.8S2.2,26.6,2.2,17.9S9.2,2.2,17.9,2.2S33.7,9.2,33.7,17.9z M17.9,33.4
				c8.5,0,15.5-6.9,15.5-15.5S26.5,2.5,17.9,2.5S2.5,9.4,2.5,17.9S9.4,33.4,17.9,33.4z"/>
			<path class="st2" d="M32.5,18.1c0,3.8-1.5,7.3-3.9,10v-7.4h-0.3v-4h-1.1v-3.8h-0.5v-0.3h-0.2V8.9H26v3.7h-0.7V8.9h-0.4v3.7h-0.2
				v0.3h-0.6v3.8v1.5v2.5h-0.3v0.3h-0.7c0.1-0.6,0.1-1.1-0.1-1.7c-0.5-1.5-1.3-3-2.1-4.5c-0.3-0.6-0.7-1.3-1.2-1.8
				c-0.6-0.6-1.1-0.7-1.5-1.5c-0.5-0.8-0.8-1.7-1.3-2.6c0.2-0.8,0.5-0.8,1.3-1.2C18.6,7.4,19,7.2,19.3,7c0.1-0.1,0.2-0.3,0.2-0.4
				c-0.2-0.5,3.3-1.8,3.8-2.1c0,0,0,0,0,0C28.7,6.7,32.5,11.9,32.5,18.1z"/>
			<path class="st1" d="M18,2.8c8.4,0,15.2,6.8,15.2,15.2c0,8.4-6.8,15.3-15.2,15.3c-1.5,0-2.9-0.2-4.2-0.6l0.2-0.6
				c0.2,0.1,0.5,0.1,0.7,0.2c0.1-0.2,0.2-0.4,0.3-0.7c0.5-1.2,1.3-2,2.4-2.6c0.2-0.9,0.8-1.7,1.2-2.6c0.1-0.1,0.2-0.2,0.3-0.2
				c0.4,0,1.6-1.1,1.9-1.3c0.4-0.4,1-1,1-1.2c0.1-0.6-0.1-1.3,0-1.9c0-0.1,0.1-0.2,0.1-0.3c0.2-0.7,0.4-1.2,0.2-2
				c-0.5-1.8-1.6-3.6-2.5-5.2c-0.5-0.9-1.4-1.2-2-2.1c-0.6-1-1-2.1-1.6-3.1c-0.6-1-1-1.2-2.1-1.8c-0.3-0.2-0.8-0.4-1-0.7
				c-0.3-0.3-0.3-0.8-0.5-1.2c0,0,0,0-0.1,0c-0.1-0.1-0.3-0.2-0.4-0.3C11.8,5.1,11.7,5,11.5,5C9.3,6.1,7.3,7.7,5.9,9.8
				c-1.6,2.3-2.6,5.2-2.6,8.2c0,3.4,1.2,6.6,3.2,9.1L6,27.5C4,24.9,2.7,21.6,2.7,18C2.7,9.6,9.6,2.8,18,2.8z M28.5,28
				c2.5-2.6,3.9-6.1,3.9-10c0-6.2-3.8-11.4-9.2-13.5c0,0,0,0,0,0c-0.4,0.3-4,1.6-3.8,2.1c0.1,0.1,0,0.3-0.2,0.4
				c-0.4,0.2-0.8,0.4-1.2,0.6c-0.8,0.4-1.1,0.4-1.3,1.2c0.5,0.8,0.8,1.8,1.3,2.6c0.5,0.8,1,0.9,1.5,1.5c0.5,0.5,0.8,1.2,1.2,1.8
				c0.8,1.4,1.6,2.9,2.1,4.5c0.2,0.6,0.2,1.1,0.1,1.7c0,0.2-0.1,0.5-0.2,0.7c-0.2,0.7,0,1.4-0.2,2.2c-0.1,0.7-0.8,1.1-1.2,1.7
				c-0.4,0.5-1,1-1.6,1.4c-0.5,0.3-0.4,0.1-0.7,0.5c-0.2,0.3-0.4,0.8-0.5,1.1c-0.1,0.3-0.4,0.6-0.4,0.9v0c0,0.1,0.1,0.3,0.1,0.4
				c0.3,1.2,1.1,2,2,2.6c1.2-0.2,2.4-0.5,3.5-1V20.9v-0.3h0.3v-2.5v-1.5v-3.8h0.6v-0.3h0.2v0.2h0.4v-0.2H26v0.2h0.4v-0.2h0.2v0.3
				h0.5v3.8h1.1v4h0.3L28.5,28L28.5,28z M19.9,5.1c0.7-0.3,1.5-0.6,2.3-1c-1.3-0.4-2.8-0.6-4.3-0.6c-1.9,0-3.6,0.3-5.3,1
				C12.8,4.6,13,4.8,13.1,5c0.2,0.3,0.2,0.7,0.4,1c0.1,0.1,0.2,0.1,0.3,0.2c0.6,0.3,1.4,0.7,1.9,1.2c0.2,0.2,0.3,0.3,0.5,0.5
				c0.1-0.2,0.3-0.4,0.6-0.6C17.2,7,17.6,6.9,18,6.7c0.4-0.2,0.3-0.2,0.5-0.5C19,5.6,19.2,5.4,19.9,5.1z M17.9,32.6c0.3,0,0.7,0,1,0
				c-0.6-0.5-1.1-1.1-1.4-1.8c-0.1-0.2-0.1-0.4-0.2-0.7c-0.8,0.6-1.3,1.4-1.8,2.3C16.3,32.6,17.1,32.6,17.9,32.6z"/>
			<polygon class="st3" points="26.4,12.6 26.4,12.8 26,12.8 26,12.6 26,8.9 26.4,8.9 			"/>
			<polygon class="st3" points="25.3,12.6 25.3,12.8 24.9,12.8 24.9,12.6 24.9,8.9 25.3,8.9 			"/>
			<path class="st2" d="M23.8,20.9v10.5c-1.1,0.5-2.3,0.8-3.5,1c-0.9-0.6-1.8-1.4-2-2.6c0-0.1-0.1-0.3-0.1-0.4v0
				c0.1-0.3,0.3-0.6,0.4-0.9c0.2-0.3,0.3-0.8,0.5-1.1c0.3-0.4,0.2-0.2,0.7-0.5c0.6-0.3,1.2-0.8,1.6-1.4c0.5-0.5,1.1-1,1.2-1.7
				c0.1-0.7-0.1-1.5,0.2-2.2c0.1-0.2,0.1-0.5,0.2-0.7L23.8,20.9L23.8,20.9z"/>
			<path class="st4" d="M22.1,19.5c0.2,0.8,0,1.2-0.2,2c0,0.1-0.1,0.2-0.1,0.3c-0.1,0.6,0.2,1.3,0,1.9c-0.1,0.2-0.7,0.8-1,1.2
				c-0.2,0.3-1.5,1.3-1.9,1.3c-0.1,0-0.2,0.1-0.3,0.2c-0.4,0.9-1,1.7-1.2,2.6c-1.1,0.6-2,1.4-2.4,2.6c-0.1,0.2-0.2,0.5-0.3,0.7
				c-0.2-0.1-0.5-0.1-0.7-0.2c-0.2-5.5-0.5-10.8-0.7-16.2c-0.3,0-0.7,0-1,0v-0.5c0.1,0,0.3-0.1,0.4-0.2c0.1-0.2,0.2-0.4,0.2-0.6
				c0.1-0.6,0-1.2-0.4-1.5c-0.1-0.1-0.1-0.1-0.2-0.2c-0.1-0.1-0.3-0.2-0.5-0.2c-0.2-0.1-0.4-0.1-0.7-0.1c0-0.1,0-0.2,0.1-0.3
				c0.1-0.4,0-0.8-0.4-1.1c0,0-0.1-0.1-0.1-0.1c0,0-0.1,0-0.1-0.1c0,0,0,0,0,0c-0.2-0.2-0.5-0.2-0.8-0.2c0-0.2,0-0.4-0.2-0.5
				C9.4,10,9.1,10,9,10h0c0,0,0,0-0.1,0c-0.2,0-0.5,0-0.7,0c-0.3,0.1-0.5,0.2-0.7,0.4L5.9,9.8C7.4,7.7,9.3,6.1,11.6,5
				c0.1,0.1,0.2,0.2,0.4,0.2c0.1,0.1,0.3,0.2,0.4,0.3c0,0,0,0,0.1,0c0.2,0.3,0.2,0.9,0.5,1.2c0.2,0.3,0.7,0.5,1,0.7
				C15,8,15.4,8.1,16,9.1c0.6,1,1,2.1,1.6,3.1c0.6,0.9,1.5,1.2,2,2.1C20.5,15.9,21.6,17.7,22.1,19.5z"/>
			<path class="st2" d="M22.2,4.1c-0.7,0.4-1.5,0.7-2.3,1c-0.7,0.3-0.9,0.5-1.3,1c-0.2,0.3-0.1,0.3-0.5,0.5
				c-0.4,0.2-0.8,0.4-1.2,0.6c-0.3,0.2-0.4,0.4-0.6,0.6c-0.1-0.2-0.3-0.3-0.5-0.5c-0.5-0.4-1.3-0.9-1.9-1.2c-0.1,0-0.2-0.1-0.3-0.2
				c-0.2-0.3-0.2-0.7-0.4-1c-0.1-0.2-0.3-0.4-0.5-0.5c1.6-0.6,3.4-1,5.3-1C19.4,3.5,20.8,3.7,22.2,4.1z"/>
			<path class="st4" d="M19,32.6c-0.3,0-0.7,0-1,0c-0.8,0-1.6-0.1-2.4-0.2c0.5-0.8,1-1.7,1.8-2.3c0,0.2,0.1,0.4,0.2,0.7
				C17.8,31.5,18.3,32.1,19,32.6z"/>
			<path class="st1" d="M13.9,32.1l-0.2,0.6C10.7,31.8,8,29.9,6,27.5l0.5-0.4c1.2,1.5,2.7,2.8,4.4,3.7c0.2-5,0.4-10,0.6-15
				c0.2,0,0.5,0,0.7,0c0.3,0,0.6,0,1,0C13.4,21.2,13.7,26.6,13.9,32.1z"/>
			<path class="st3" d="M8.8,12.8c-0.6,0-1-0.5-1.1-1.1c0-0.7,0.3-1.2,0.9-1.3c0.2,0,0.4,0,0.6,0c0,0,0,0,0,0l0,0
				c0.1,0,0.2-0.1,0.2-0.1c-0.1-0.1-0.1-0.2-0.2-0.2c-0.2,0-0.5,0-0.7,0c-0.5,0.1-0.8,0.4-1,0.8c0,0.1-0.1,0.1-0.1,0.2
				c0,0,0,0,0,0.1c0,0.1,0,0.1,0,0.2c0,0,0,0.1,0,0.1c0,0.1,0,0.2,0,0.2c0,0,0,0,0,0c0.1,0.6,0.6,1.2,1.2,1.2
				C8.6,12.8,8.7,12.8,8.8,12.8z M12.4,12.9c0.4,0.4,0.6,0.9,0.4,1.5c-0.1,0.2-0.1,0.4-0.2,0.6c-0.1,0.1-0.2,0.2-0.4,0.2
				c-0.1,0-0.1,0-0.2,0c-0.2-0.1-0.2-0.2-0.2-0.4c0,0,0,0,0,0c0,0,0,0,0,0c0-0.1,0-0.3,0-0.4c0-0.1,0-0.1,0-0.2v0
				c0-0.2-0.1-0.4-0.4-0.3c-0.3,0.1-0.6,0.2-0.9,0.2c-0.2,0.1-0.5,0.1-0.7,0.1c-0.6,0-0.9-0.4-0.9-0.8c0-0.1,0-0.1,0-0.2
				c-0.1,0-0.3,0-0.4,0c-0.8,0-1.4-0.5-1.6-1.3c-0.2-0.6,0-1.2,0.4-1.6C7.6,10.2,7.8,10,8.1,10c0.2-0.1,0.5,0,0.7,0c0,0,0,0,0.1,0h0
				c0.2,0,0.4,0.1,0.6,0.2c0.2,0.2,0.2,0.3,0.2,0.5c0.3,0,0.5,0,0.8,0.2c0,0,0,0,0,0c0,0,0.1,0,0.1,0.1c0.4,0.3,0.5,0.7,0.4,1.1
				c0,0.1,0,0.2-0.1,0.3c0.3,0.1,0.5,0.1,0.8,0.2c0.2,0.1,0.3,0.1,0.5,0.2C12.3,12.8,12.4,12.9,12.4,12.9z M12.4,13.5
				c0.1,0.3,0.1,0.7-0.1,1c0-0.1,0-0.2,0-0.3c0-0.1,0-0.2,0-0.3c0,0.1,0,0.1,0,0.2c0,0.1,0,0.3,0,0.4c0,0,0-0.1,0-0.1
				c0,0.1,0,0.1,0,0.2C12.6,14.3,12.6,13.9,12.4,13.5z M10.1,11.1c0.1,0,0.2,0,0.2,0c-0.1-0.1-0.2-0.1-0.4-0.1c-0.1,0-0.3,0-0.4,0
				c0,0,0.1,0.1,0.1,0.1C9.8,11.2,9.9,11.1,10.1,11.1z M9.5,12.7C9.5,12.7,9.4,12.7,9.5,12.7c-0.3,0-0.5,0.1-0.7,0.1
				C9,12.8,9.2,12.7,9.5,12.7z"/>
			<path class="st3" d="M12.3,14.6c0.2-0.4,0.2-0.7,0.1-1c0.2,0.4,0.2,0.8-0.1,1.2C12.3,14.7,12.3,14.6,12.3,14.6z"/>
			<path class="st3" d="M12.3,14c0,0.1,0,0.2,0,0.3c0,0.1,0,0.2,0,0.3c0,0,0,0.1,0,0.1c0-0.2,0-0.3,0-0.4
				C12.3,14.1,12.3,14.1,12.3,14z"/>
			<path class="st4" d="M12.2,15.3v0.5c-0.2,0-0.5,0-0.7,0c-0.2,5-0.4,10-0.6,15c-1.7-0.9-3.2-2.2-4.4-3.7c-2-2.5-3.2-5.7-3.2-9.1
				c0-3.1,0.9-5.9,2.6-8.2l1.5,0.5c-0.4,0.4-0.6,1-0.4,1.6c0.2,0.8,0.8,1.2,1.6,1.3c0.1,0,0.3,0,0.4,0c0,0.1,0,0.1,0,0.2
				c0,0.4,0.3,0.8,0.9,0.8c0.2,0,0.5,0,0.7-0.1c0.3-0.1,0.6-0.2,0.9-0.2c0.3-0.1,0.4,0.1,0.4,0.3v0c0,0.1,0,0.1,0,0.2
				c0,0.1,0,0.2,0,0.3c0,0.1,0,0.1,0,0.2c0,0,0,0,0,0c0,0.2,0,0.3,0.2,0.4C12.1,15.3,12.2,15.3,12.2,15.3z"/>
			<path class="st3" d="M11.8,12.5c0.2,0.1,0.3,0.1,0.5,0.2C12.1,12.7,11.9,12.6,11.8,12.5c-0.3-0.1-0.5-0.1-0.8-0.1
				c0-0.1,0.1-0.2,0.1-0.3c0.1-0.4,0-0.8-0.4-1.1c0,0,0.1,0,0.1,0.1c0.3,0.3,0.4,0.6,0.4,1.1c0,0.1,0,0.2-0.1,0.3
				C11.3,12.4,11.5,12.5,11.8,12.5z"/>
			<path class="st5" d="M12,14.4c0,0.1,0,0.3,0,0.4c0,0,0,0,0,0c0-0.1,0-0.1,0-0.2C11.9,14.6,11.9,14.5,12,14.4z"/>
			<path class="st3" d="M10.3,11.2c-0.1,0-0.1,0-0.2,0c-0.1,0-0.3,0-0.4,0c0,0-0.1,0-0.1-0.1c0.1,0,0.3,0,0.4,0
				C10,11.1,10.2,11.1,10.3,11.2z"/>
			<path class="st3" d="M9.4,12.7C9.4,12.7,9.4,12.7,9.4,12.7c-0.2,0-0.4,0.1-0.6,0.1C9,12.8,9.2,12.7,9.4,12.7z"/>
			<path class="st3" d="M9.4,10.3c-0.1,0-0.2,0.1-0.2,0.1c-0.2-0.1-0.4-0.1-0.4-0.1v0c-0.2,0-0.3,0-0.5,0c-0.4,0.1-0.7,0.3-0.9,0.6
				c0.2-0.4,0.5-0.7,1-0.8c0.2-0.1,0.5,0,0.7,0C9.3,10.1,9.3,10.2,9.4,10.3z"/>
			<path class="st3" d="M9.2,10.4L9.2,10.4C9.2,10.4,9.2,10.4,9.2,10.4c-0.2,0-0.4,0-0.6,0c-0.6,0.1-1,0.6-0.9,1.3
				c0,0.6,0.5,1.1,1.1,1.1c-0.1,0-0.2,0-0.2,0c-0.6,0-1.1-0.5-1.2-1.2c0,0,0,0,0,0c0-0.1,0-0.2,0-0.2c0,0,0-0.1,0-0.1
				c0-0.1,0-0.1,0-0.2c0,0,0,0,0-0.1c0-0.1,0-0.1,0.1-0.2c0.2-0.3,0.4-0.5,0.9-0.6c0.2,0,0.3,0,0.5,0v0C8.8,10.3,9,10.3,9.2,10.4z"
				/>
		</g>
	</g>
	<g id="XMLID_74_">
		<g>
			<path class="st1" d="M28.5,20.6v7.4c-0.1,0-1.6,1.5-2,1.8c-1.1,0.7-2.8,1.6-2.8,1.6V20.6h0.3v-7.8h0.6v-0.3h0.2V8.8h0.4v3.7H26
				V8.8h0.4v3.7h0.2v0.3h0.5v3.8h1.1v4H28.5z"/>
		</g>
	</g>
	<path class="st1" d="M13.2,15.8c-0.4,0-0.7,0-1,0c-0.3,0-0.5,0-0.8,0c-0.2,5-0.7,15-0.7,15l3.2,1.2C13.7,26.6,13.5,21.2,13.2,15.8z
		"/>
	<path class="st1" d="M11.8,12.5c-0.2-0.1-0.5-0.1-0.8-0.1c0-0.1,0-0.2,0.1-0.3c0.1-0.4,0-0.8-0.4-1.1c-0.3-0.2-0.6-0.3-0.9-0.3
		c0-0.2,0-0.4-0.2-0.5C9.4,10,9.1,10,9,9.9l0,0h0c0,0,0,0-0.1,0c-0.2,0-0.5,0-0.7,0c-0.9,0.2-1.4,1-1.2,2c0.2,0.8,0.8,1.2,1.6,1.3
		c0.1,0,0.3,0,0.4,0c0,0.1,0,0.1,0,0.2c0,0.4,0.3,0.8,0.9,0.8c0.2,0,0.5,0,0.7-0.1c0.3-0.1,0.6-0.2,0.9-0.2c0.3-0.1,0.4,0.1,0.4,0.3
		c0,0.2,0,0.4-0.1,0.6c0,0.2-0.1,0.4,0.1,0.5c0.2,0.1,0.4,0,0.5-0.2c0.1-0.2,0.2-0.4,0.2-0.6C13.1,13.5,12.6,12.8,11.8,12.5z"/>
</g>
</svg>
